<?xml version="1.0" encoding="utf-8"?>
<!-- Svg Vector Icons : http://www.onlinewebfonts.com/icon -->
<!DOCTYPE svg PUBLIC "-//W3C//DTD SVG 1.1//EN" "http://www.w3.org/Graphics/SVG/1.1/DTD/svg11.dtd">
<svg version="1.1" xmlns="http://www.w3.org/2000/svg" xmlns:xlink="http://www.w3.org/1999/xlink" x="0px" y="0px" viewBox="0 0 256 256" enable-background="new 0 0 256 256" xml:space="preserve">
<metadata> Svg Vector Icons : http://www.onlinewebfonts.com/icon </metadata>
<g><g><path stroke-width="12" fill-opacity="0" stroke="#000000"  d="M218.5,29.3h-19.3v30.8h10.1c0.3,0,0.7-0.1,1-0.1c6.5,0,11.8,5.3,11.8,11.8s-5.3,11.8-11.8,11.8c-0.9,0-1.8-0.1-2.6-0.3H64.4h-7.7h-8.5c-0.8,0.2-1.7,0.3-2.6,0.3s-1.8-0.1-2.6-0.3h-1.7v-0.5c-4.4-1.7-7.5-5.9-7.5-10.9s3.1-9.2,7.5-10.9v-0.7h3.3c0.3,0,0.6-0.1,1-0.1s0.7,0.1,1,0.1h10.1V48.5h7.7v11.6h127.2V29.3h-23.1V36l-19.3,8.7l5.5-17.2L149.2,10l19.3,8.7v6.7h50.1v-7.7l15.4,9.6L218.6,37L218.5,29.3L218.5,29.3z M72.1,44.7H49V33.1h23.1V44.7z M85.3,36.5c-5.1,0-9.5-2.9-11.7-7.2H61.9c-2,1.9-5.1,3.2-8.4,3.8c-0.2,0-0.3-1.5-0.4-3.8H47c-2.2,4.3-6.6,7.2-11.7,7.2C28,36.5,22,30.5,22,23.2S28,10,35.3,10c6.7,0,12.2,5.1,13.1,11.6h4.7c0-3.8,0.2-7.1,0.4-7.1c5.1-0.5,9.5,2.9,10.6,7.1h8.1C73.1,15.1,78.6,10,85.3,10c7.3,0,13.2,5.9,13.2,13.2S92.7,36.5,85.3,36.5z M118.4,90.9h19.3v19.3h-19.3V90.9z M117.2,198.8h19.3V246h-19.3V198.8z M118.4,117.9h19.3h11.6h34.7v69.4h-38.5h-7.7h-19.3h-3.9H68.3v-69.4h42.4H118.4z M132.4,177.6c8.7,0,16-6.2,18.3-14.7h-6.2c-2,5.2-6.7,8.8-12.1,8.8c-7.3,0-13.2-6.6-13.2-14.7c0-8.1,5.9-14.7,13.2-14.7c4.3,0,8.1,2.3,10.5,5.9h6.7c-3.1-7-9.6-11.8-17.3-11.8c-10.6,0-19.1,9.2-19.1,20.6C113.3,168.4,121.9,177.6,132.4,177.6z M104.5,130.6c-3.3,0-5.9,2.6-5.9,5.9c0,3.3,2.6,5.9,5.9,5.9s5.9-2.6,5.9-5.9C110.4,133.2,107.7,130.6,104.5,130.6z M104.5,139.4c-1.6,0-2.9-1.3-2.9-2.9c0-1.6,1.3-2.9,2.9-2.9s2.9,1.3,2.9,2.9C107.4,138,106.1,139.4,104.5,139.4z"/></g></g>
</svg>