<?xml version="1.0" encoding="UTF-8"?>
<svg id="Layer_1" data-name="Layer 1" xmlns="http://www.w3.org/2000/svg" xmlns:xlink="http://www.w3.org/1999/xlink" viewBox="0 0 60 60">
  <defs>
    <style>
      .cls-1 {
        fill: #2e3192;
      }

      .cls-2 {
        fill: none;
      }

      .cls-3 {
        clip-path: url(#clippath-1);
      }

      .cls-4 {
        fill: #c1272d;
        stroke: #000;
        stroke-miterlimit: 10;
      }

      .cls-5 {
        fill: #f7931e;
      }

      .cls-6 {
        clip-path: url(#clippath);
      }
    </style>
    <clipPath id="clippath">
      <rect class="cls-2" x="13" y="2" width="41" height="29"/>
    </clipPath>
    <clipPath id="clippath-1">
      <path class="cls-2" d="M61.98,29.72c-2,7.37-3.94,9.82-19.15,12.33-4.32-.75-8.05-.29-11.41,2.94-2.93.63-5.74-5.17-12.32-2.92-2.61.08-4.3-.2-17.13-3.66C8.29,1.87,52.79,10.59,61.98,29.72Z"/>
    </clipPath>
  </defs>
  <g class="cls-6">
    <path class="cls-4" d="M19.82,36.73c1.98-4.22,8.07-4.32,8.4-6.28.37-24.98-4.65-22.82,20.37-16.44,6.42,1.92-.08,5.13-3.45,5.46-4.25,1.22-8.5,2.43-12.75,3.62-1.7,1.55-.27,5.16-.72,7.4.3,1.85,6.42,2.12,8.35,6.16-.35.25-19.43.33-20.2.07Z"/>
  </g>
  <path class="cls-1" d="M47.95,51.26c-2.19-.04-4.06-.92-5.69-2.47-5.46-4.77-10.1,7.17-16.77.55-5.9-6.12-10.74,7.12-17.86-.34-1.77-1.42.22-4.36,2.14-2.87,1.85,1.78,4.63,2.11,6.46.06,7.24-7.58,11.77,5.28,17.58-.09,7.01-7.21,11.39,4.75,17.08.31,5.37-2.55,3.33,5.17-2.93,4.85Z"/>
  <g class="cls-3">
    <path class="cls-5" d="M42.13,42.63c.23,15.74-24.49,15.74-24.26,0-.23-15.73,24.49-15.73,24.26,0Z"/>
  </g>
</svg>