<?xml version="1.0" encoding="UTF-8"?><svg id="a" xmlns="http://www.w3.org/2000/svg" viewBox="0 0 56 58"><polygon points="28 1 46 5 46 10.55 10 10.55 10 5 28 1" style="fill:#c1272d; stroke-width:0px;"/><polygon points="31 10.55 25 10.55 25 29 16 29 10 57 46 57 40 29 31 29 31 10.55" style="fill:#fff; stroke-width:0px;"/><polygon points="10 57 16 29 25 29 25 10.55 10 10.55 10 5 28 1 46 5 46 10.55 31 10.55 31 29 40 29 46 57 10 57" style="fill:none; stroke:#000; stroke-linecap:round; stroke-linejoin:round; stroke-width:2px;"/><path d="m2.99,26.74c-.82,0-1.49-.67-1.49-1.5v-10.85c0-.83.67-1.5,1.49-1.5.12,0,.25.02.37.05l16,3.97c.67.17,1.14.76,1.14,1.46v3.22c0,.7-.48,1.3-1.16,1.46l-16,3.67c-.11.03-.23.04-.34.04Z" style="fill:#fff800; stroke-width:0px;"/><path d="m3,14.38l16,3.96v3.22l-16,3.67v-10.85m0-3c-1.61,0-2.99,1.3-2.99,3v10.85c0,1.69,1.38,3,2.99,3,.22,0,.45-.02.68-.08l16-3.67c1.36-.31,2.33-1.53,2.33-2.92v-3.22c0-1.38-.94-2.58-2.28-2.91l-16-3.96c-.24-.06-.49-.09-.73-.09h0Z" style="fill:#fc8535; stroke-width:0px;"/><path d="m53.01,26.74c-.11,0-.23-.01-.34-.04l-16-3.67c-.69-.16-1.17-.76-1.17-1.46v-3.22c0-.69.47-1.29,1.14-1.46l16-3.97c.12-.03.25-.05.37-.05.82,0,1.49.67,1.49,1.5v10.85c0,.41-.16.78-.45,1.07-.28.28-.66.43-1.05.43h0Z" style="fill:#fff800; stroke-width:0px;"/><path d="m53,14.38v10.85l-16-3.67v-3.22l16-3.96m0-3c-.24,0-.48.03-.73.09l-16,3.96c-1.34.33-2.28,1.53-2.28,2.91v3.22c0,1.4.97,2.61,2.33,2.92l16,3.67c.23.05.45.08.68.08,1.61,0,2.99-1.31,2.99-3v-10.85c0-1.7-1.39-3-2.99-3h0Z" style="fill:#fc8535; stroke-width:0px;"/></svg>